<svg id="visual" viewBox="0 0 900 300" width="900" height="300" xmlns="http://www.w3.org/2000/svg"
    xmlns:xlink="http://www.w3.org/1999/xlink" version="1.1">
    <rect x="0" y="0" width="900" height="300" fill="#FFFFFF"></rect>
    <path
        d="M0 241L21.5 232.5C43 224 86 207 128.8 204.3C171.7 201.7 214.3 213.3 257.2 220.8C300 228.3 343 231.7 385.8 237.2C428.7 242.7 471.3 250.3 514.2 242.3C557 234.3 600 210.7 642.8 204.3C685.7 198 728.3 209 771.2 220.8C814 232.7 857 245.3 878.5 251.7L900 258L900 301L878.5 301C857 301 814 301 771.2 301C728.3 301 685.7 301 642.8 301C600 301 557 301 514.2 301C471.3 301 428.7 301 385.8 301C343 301 300 301 257.2 301C214.3 301 171.7 301 128.8 301C86 301 43 301 21.5 301L0 301Z"
        fill="#000000" stroke-linecap="round" stroke-linejoin="miter"></path>
</svg>