<svg id="visual" viewBox="0 0 900 300" width="900" height="300" xmlns="http://www.w3.org/2000/svg"
    xmlns:xlink="http://www.w3.org/1999/xlink" version="1.1">
    <rect x="0" y="0" width="900" height="300" fill="#FFFFFF"></rect>
    <path
        d="M0 195L21.5 204.3C43 213.7 86 232.3 128.8 238.5C171.7 244.7 214.3 238.3 257.2 229.8C300 221.3 343 210.7 385.8 209.5C428.7 208.3 471.3 216.7 514.2 215.5C557 214.3 600 203.7 642.8 199.3C685.7 195 728.3 197 771.2 205.7C814 214.3 857 229.7 878.5 237.3L900 245L900 301L878.5 301C857 301 814 301 771.2 301C728.3 301 685.7 301 642.8 301C600 301 557 301 514.2 301C471.3 301 428.7 301 385.8 301C343 301 300 301 257.2 301C214.3 301 171.7 301 128.8 301C86 301 43 301 21.5 301L0 301Z"
        fill="#000000" stroke-linecap="round" stroke-linejoin="miter"></path>
</svg>