<svg id="visual" viewBox="0 0 900 300" width="900" height="300" xmlns="http://www.w3.org/2000/svg"
    xmlns:xlink="http://www.w3.org/1999/xlink" version="1.1">
    <rect x="0" y="0" width="900" height="300" fill="#FFFFFF"></rect>
    <path
        d="M0 209L21.5 209C43 209 86 209 128.8 216.7C171.7 224.3 214.3 239.7 257.2 236.8C300 234 343 213 385.8 203.5C428.7 194 471.3 196 514.2 205.8C557 215.7 600 233.3 642.8 232.5C685.7 231.7 728.3 212.3 771.2 207.7C814 203 857 213 878.5 218L900 223L900 301L878.5 301C857 301 814 301 771.2 301C728.3 301 685.7 301 642.8 301C600 301 557 301 514.2 301C471.3 301 428.7 301 385.8 301C343 301 300 301 257.2 301C214.3 301 171.7 301 128.8 301C86 301 43 301 21.5 301L0 301Z"
        fill="#000000" stroke-linecap="round" stroke-linejoin="miter"></path>
</svg>