<svg id="visual" viewBox="0 0 900 300" width="900" height="300" xmlns="http://www.w3.org/2000/svg"
    xmlns:xlink="http://www.w3.org/1999/xlink" version="1.1">
    <rect x="0" y="0" width="900" height="300" fill="#FFFFFF"></rect>
    <path
        d="M0 62L30 65.8C60 69.7 120 77.3 180 85.8C240 94.3 300 103.7 360 100.5C420 97.3 480 81.7 540 78C600 74.3 660 82.7 720 84C780 85.3 840 79.7 870 76.8L900 74L900 0L870 0C840 0 780 0 720 0C660 0 600 0 540 0C480 0 420 0 360 0C300 0 240 0 180 0C120 0 60 0 30 0L0 0Z"
        fill="#000000" stroke-linecap="round" stroke-linejoin="miter"></path>
</svg>