<svg id="visual" viewBox="0 0 900 300" width="900" height="300" xmlns="http://www.w3.org/2000/svg"
    xmlns:xlink="http://www.w3.org/1999/xlink" version="1.1">
    <rect x="0" y="0" width="900" height="300" fill="#FFFFFF"></rect>
    <path
        d="M0 114L30 104.8C60 95.7 120 77.3 180 69.5C240 61.7 300 64.3 360 72C420 79.7 480 92.3 540 93.2C600 94 660 83 720 83.5C780 84 840 96 870 102L900 108L900 0L870 0C840 0 780 0 720 0C660 0 600 0 540 0C480 0 420 0 360 0C300 0 240 0 180 0C120 0 60 0 30 0L0 0Z"
        fill="#000000" stroke-linecap="round" stroke-linejoin="miter"></path>
</svg>